<svg width="1080" height="102" viewBox="0 0 1080 102" fill="none" xmlns="http://www.w3.org/2000/svg">
<path d="M6.548 76.2924C17.28 82.4744 27.83 85.5654 38.199 85.5654C48.749 85.5654 55.298 80.4754 55.298 72.2904C55.298 65.0124 49.295 61.9204 37.653 57.7384L28.739 54.8274C12.551 49.7334 4.547 40.4564 4.547 27.1764C4.183 2.62141 34.743 -9.20159 69.304 8.44141L62.755 21.9014C54.024 17.5384 45.839 15.3544 38.381 15.3544C28.013 15.3544 21.465 19.9024 21.465 27.1764C21.465 33.9084 26.194 37.3654 35.471 40.4564L44.383 43.1864C62.028 49.0064 72.578 57.5534 72.578 71.5594C72.578 90.1134 59.481 101.209 38.016 101.209C25.648 101.209 13.097 97.9384 0 90.6604L6.548 76.2924Z" fill="#666768"/>
<path d="M163.232 84.293V99.576H103.386V2.62099H161.776V17.9H119.758V44.093H158.32V58.646H119.758V84.293H163.232Z" fill="#666768"/>
<path d="M230.658 51.5521C241.025 51.5521 247.575 44.8201 247.575 34.4541C247.575 24.6321 240.662 17.9001 230.658 17.9001H211.194V51.5521H230.658ZM194.641 2.62114H231.567C241.39 2.62114 249.393 5.53114 255.396 11.5321C261.58 17.3531 264.491 24.9931 264.491 34.4541C264.491 47.9151 257.944 58.6451 246.846 63.1941L267.219 99.5751H249.212L231.204 66.8301H211.194V99.5751H194.641V2.62114Z" fill="#666768"/>
<path d="M296.592 66.4691V2.2561H313.145V64.1051C313.145 76.1081 321.513 84.4771 333.881 84.4771C346.252 84.4771 354.617 76.1081 354.617 64.1051V2.2561H370.99V66.4691C370.99 76.6541 367.533 85.2041 360.621 91.7521C353.891 98.1181 344.977 101.209 333.881 101.209C322.785 101.209 313.691 98.1181 306.961 91.7521C300.048 85.2041 296.592 76.6541 296.592 66.4691Z" fill="#666768"/>
<path d="M442.329 51.5521C452.696 51.5521 459.246 44.8201 459.246 34.4541C459.246 24.6321 452.333 17.9001 442.329 17.9001H422.865V51.5521H442.329ZM406.312 2.62114H443.238C453.061 2.62114 461.064 5.53114 467.067 11.5321C473.251 17.3531 476.162 24.9931 476.162 34.4541C476.162 47.9151 469.615 58.6451 458.517 63.1941L478.891 99.5751H460.883L442.875 66.8301H422.865V99.5751H406.312V2.62114Z" fill="#666768"/>
<path d="M556.527 63.0054H528.632V98.9724H564.599V71.0784L556.527 63.0054Z" fill="#ED1459"/>
<path d="M637.135 88.3456L629.694 68.0977L622.322 88.3456H637.135ZM638.275 91.4306H621.181L618.231 99.5406H614.343L627.817 63.7416H631.704L645.114 99.5406H641.226L638.275 91.4306Z" fill="#666768"/>
<path d="M692.512 92.0336C694.791 89.4166 695.931 85.9316 695.931 81.5756C695.931 77.2166 694.791 73.7976 692.512 71.1836C690.163 68.5706 687.216 67.2267 683.463 67.2267H673.136V96.0556H683.463C687.216 96.0556 690.163 94.7166 692.512 92.0336ZM695.26 68.7046C698.211 71.9206 699.685 76.2106 699.685 81.5756C699.685 86.9376 698.211 91.2966 695.195 94.5816C692.243 97.8666 688.287 99.5406 683.394 99.5406H669.517V63.7416H683.529C688.356 63.7416 692.313 65.4196 695.26 68.7046Z" fill="#666768"/>
<path d="M751.019 63.7421L737.944 99.5401H734.325L721.319 63.7421H725.207L736.202 94.4481L747.131 63.7421H751.019Z" fill="#666768"/>
<path d="M789.514 66.559C785.561 66.624 782.341 68.098 779.927 70.85C777.517 73.529 776.308 77.151 776.308 81.576C776.308 86.066 777.517 89.754 779.927 92.502C782.341 95.184 785.561 96.593 789.514 96.593C793.47 96.593 796.69 95.184 799.1 92.502C801.514 89.754 802.723 86.066 802.723 81.576C802.723 77.017 801.514 73.394 799.1 70.646C796.69 67.898 793.47 66.49 789.514 66.559ZM772.555 81.576C772.555 76.077 774.097 71.586 777.179 68.167C780.33 64.813 784.421 63.071 789.514 63.071C794.61 63.071 798.701 64.813 801.783 68.167C804.933 71.586 806.476 76.077 806.545 81.576C806.611 87.141 805.002 91.631 801.852 95.05C798.766 98.469 794.61 100.143 789.514 100.143C784.421 100.143 780.33 98.469 777.179 95.05C774.097 91.631 772.555 87.141 772.555 81.576Z" fill="#666768"/>
<path d="M850.204 63.0054C854.494 63.0054 859.722 64.8824 863.743 67.8334L862.204 70.8494C858.582 68.2334 853.957 66.4904 850.269 66.4904C845.978 66.4904 842.425 67.8334 839.678 70.6464C836.995 73.3944 835.655 77.0174 835.655 81.5764C835.655 86.1354 836.995 89.8194 839.678 92.5674C842.359 95.3184 845.913 96.7274 850.269 96.7274C854.157 96.7274 857.645 95.4534 860.796 92.8364V81.2384H864.215V94.3134C862.538 96.0554 860.392 97.4634 857.779 98.5344C855.097 99.6094 852.618 100.143 850.069 100.143C844.64 100.143 840.28 98.4694 836.93 95.0504C833.644 91.6964 832.036 87.1404 832.036 81.6414C832.036 76.0764 833.644 71.5864 836.995 68.1674C840.414 64.7484 844.773 63.0054 850.204 63.0054Z" fill="#666768"/>
<path d="M910.371 88.3456L902.93 68.0977L895.558 88.3456H910.371ZM911.511 91.4306H894.418L891.467 99.5406H887.579L901.053 63.7416H904.94L918.35 99.5406H914.462L911.511 91.4306Z" fill="#666768"/>
<path d="M965.748 92.0336C968.027 89.4166 969.168 85.9316 969.168 81.5756C969.168 77.2166 968.027 73.7976 965.748 71.1836C963.399 68.5706 960.452 67.2267 956.699 67.2267H946.372V96.0556H956.699C960.452 96.0556 963.399 94.7166 965.748 92.0336ZM968.496 68.7046C971.447 71.9206 972.921 76.2106 972.921 81.5756C972.921 86.9376 971.447 91.2966 968.431 94.5816C965.479 97.8666 961.523 99.5406 956.63 99.5406H942.753V63.7416H956.765C961.592 63.7416 965.549 65.4196 968.496 68.7046Z" fill="#666768"/>
<path d="M1014.81 66.559C1010.85 66.624 1007.63 68.098 1005.22 70.85C1002.81 73.529 1001.6 77.151 1001.6 81.576C1001.6 86.066 1002.81 89.754 1005.22 92.502C1007.63 95.184 1010.85 96.593 1014.81 96.593C1018.76 96.593 1021.98 95.184 1024.4 92.502C1026.81 89.754 1028.02 86.066 1028.02 81.576C1028.02 77.017 1026.81 73.394 1024.4 70.646C1021.98 67.898 1018.76 66.49 1014.81 66.559ZM997.848 81.576C997.848 76.077 999.391 71.586 1002.47 68.167C1005.62 64.813 1009.71 63.071 1014.81 63.071C1019.9 63.071 1023.99 64.813 1027.08 68.167C1030.23 71.586 1031.77 76.077 1031.84 81.576C1031.9 87.141 1030.3 91.631 1027.14 95.05C1024.06 98.469 1019.9 100.143 1014.81 100.143C1009.71 100.143 1005.62 98.469 1002.47 95.05C999.391 91.631 997.848 87.141 997.848 81.576Z" fill="#666768"/>
<path d="M1055.7 93.5072C1059.72 95.6532 1063.54 96.7272 1067.3 96.7272C1072.39 96.7272 1075.68 94.0442 1075.68 89.8882C1075.68 88.0112 1074.94 86.6032 1073.07 85.5282C1071.32 84.3892 1070.11 83.8552 1067.37 82.9152L1064.55 81.9102C1059.12 79.9642 1055.77 77.2162 1055.77 72.3232C1055.77 69.5752 1056.84 67.3612 1058.92 65.6192C1061.07 63.8772 1063.81 63.0052 1067.3 63.0052C1070.45 63.0052 1074.14 64.0112 1078.23 65.8872L1076.82 68.9042C1073.6 67.2962 1070.45 66.4902 1067.5 66.4902C1062.67 66.4902 1059.52 68.7042 1059.52 72.3232C1059.52 75.6082 1061.8 77.2162 1066.02 78.7592L1068.91 79.6952C1072.13 80.8352 1074.07 81.7762 1076.22 83.3182C1078.43 84.8612 1079.5 87.0712 1079.5 89.8192C1079.5 96.1902 1074.81 100.143 1067.3 100.143C1063.14 100.143 1058.85 98.9382 1054.29 96.6582L1055.7 93.5072Z" fill="#666768"/>
</svg>
